<?xml version="1.0" encoding="iso-8859-1"?>
<svg height="18" width="18" version="1.1" id="Layer_1" xmlns="http://www.w3.org/2000/svg" xmlns:xlink="http://www.w3.org/1999/xlink" 
	 viewBox="0 0 512 512" xml:space="preserve">
<path style="fill:#2860CC;" d="M83.478,406.261H16.696C7.479,406.261,0,398.782,0,389.565V289.391
	c0-9.217,7.479-16.696,16.696-16.696h66.783c9.217,0,16.696,7.479,16.696,16.696v100.174
	C100.174,398.782,92.695,406.261,83.478,406.261z"/>
<g>
	<path style="fill:#167EE6;" d="M512,89.043c0-27.619-22.468-50.087-50.087-50.087H116.87c-27.619,0-50.087,22.468-50.087,50.087
		V258.14H512V89.043z"/>
	<path style="fill:#167EE6;" d="M83.478,239.304H16.696C7.479,239.304,0,231.826,0,222.609V122.435
		c0-9.217,7.479-16.696,16.696-16.696h66.783c9.217,0,16.696,7.479,16.696,16.696v100.174
		C100.174,231.826,92.695,239.304,83.478,239.304z"/>
</g>
<path style="fill:#2860CC;" d="M66.783,256v166.957c0,27.619,22.468,50.087,50.087,50.087h345.043
	c27.619,0,50.087-22.468,50.087-50.087V256H66.783z"/>
<path style="fill:#FFFFFF;" d="M428.522,339.478c-9.217,0-16.696-7.479-16.696-16.696V189.217c0-9.217,7.479-16.696,16.696-16.696
	c9.217,0,16.696,7.479,16.696,16.696v133.565C445.217,332,437.739,339.478,428.522,339.478z"/>
<path style="fill:#E6F3FF;" d="M411.826,256v66.783c0,9.217,7.479,16.696,16.696,16.696c9.217,0,16.696-7.479,16.696-16.696V256
	H411.826z"/>
<path style="fill:#FFFFFF;" d="M320.034,301.991c8.75-13.201,13.879-29.001,13.879-45.991s-5.129-32.79-13.879-45.991l42.379-42.379
	c6.521-6.521,6.521-17.087,0-23.609s-17.087-6.521-23.609,0L296.426,186.4c-13.201-8.75-29.001-13.879-45.991-13.879
	s-32.79,5.129-45.991,13.879l-42.379-42.379c-6.521-6.521-17.087-6.521-23.609,0s-6.521,17.087,0,23.609l42.379,42.379
	c-8.75,13.201-13.879,29.001-13.879,45.991s5.129,32.79,13.879,45.991l-42.379,42.379c-6.521,6.521-6.521,17.087,0,23.609
	s17.086,6.522,23.609,0l42.379-42.379c13.201,8.75,29.001,13.879,45.991,13.879s32.79-5.129,45.991-13.879l42.379,42.379
	c6.521,6.521,17.086,6.522,23.609,0c6.521-6.521,6.521-17.087,0-23.609L320.034,301.991z M200.348,256
	c0-27.619,22.468-50.087,50.087-50.087s50.087,22.468,50.087,50.087s-22.468,50.087-50.087,50.087S200.348,283.619,200.348,256z"/>
<path style="fill:#E6F3FF;" d="M300.522,256c0,27.619-22.468,50.087-50.087,50.087S200.348,283.619,200.348,256h-33.391
	c0,16.99,5.129,32.79,13.879,45.991l-42.379,42.379c-6.521,6.521-6.521,17.087,0,23.609s17.086,6.522,23.609,0l42.379-42.379
	c13.201,8.75,29.001,13.879,45.991,13.879s32.79-5.129,45.991-13.879l42.379,42.379c6.521,6.521,17.086,6.522,23.609,0
	c6.521-6.521,6.521-17.087,0-23.609l-42.379-42.379c8.751-13.201,13.879-29.001,13.879-45.991H300.522z"/>
<circle style="fill:#FFFFFF;" cx="250.435" cy="256" r="16.696"/>
<path style="fill:#E6F3FF;" d="M250.435,272.696c9.22,0,16.696-7.475,16.696-16.696h-33.391
	C233.739,265.22,241.214,272.696,250.435,272.696z"/>
</svg>